# xmcd
#
# Track frame offsets: 
#        150
#        14125
#        29028
#        48260
#
# Disc length: 966 seconds
#
# Revision: 1
# Processed by: cddbd v1.5.2PL0 Copyright (c) Steve Scherf et al.
# Submitted via: ExactAudioCopyFreeDBPlugin 1.0
#
DISCID=3203c404
DTITLE=Abraham - What Gives With You
DYEAR=2002
DGENRE=Pop/Funk
TTITLE0=What Gives With You [Original Version]
TTITLE1=What Gives With You [Parsley Sound Remix]
TTITLE2=What Gives With You [Herbert Remix 'Animal Orchestra Dub']
TTITLE3=What Gives With You [Herbert Remix 'Hand And Fibre Dub']
EXTD=
EXTT0=
EXTT1=
EXTT2=
EXTT3=
PLAYORDER=
